<svg version="1" xmlns="http://www.w3.org/2000/svg" width="1084.913281pt" height="1736.326873pt" viewBox="0 0 1084.913281 1736.326873">
  <path d="M695.80131 1.38092c-3 .7-8 2.6-11 4.2-7.3 4-10.8 5-21.5 6.4-4.9.6-9.9 1.2-11 1.4-6.6 1-23.1 9.3-37 18.5-14.9 10-40.4 31.8-55.4 47.2-5.7 6-7.9 6.9-10.2 4.2-6.4-7.7-25-12.4-39.3-9.9-18.1 3.2-28.7 13.4-59.9 58.5-6 8.6-6.4 9.4-9.4 14.6-3.4 6.2-5.7 8.1-10.8 8.8-2.8.5-4.5 1.2-4.3 1.9.2.7 3.5 2.8 7.3 4.7 5.8 2.9 8 3.5 13 3.4 3.9 0 7.5-.7 10-2 4-1.9 5.5-3.7 14.9-18 6.5-9.8 21.2-28.4 33-41.7 13-14.5 21-17.8 29.2-11.8 2.1 1.5 4.7 3.7 5.8 4.9 1.8 2 1.7 2.2-2 6.7-2.3 2.8-5 4.9-6.7 5.2-5.3 1.1-4.3 3.9 2.7 7.5 5.4 2.7 13.5 2.2 20.6-1.5 4.9-2.5 5.3-2.6 8.7-1.2 7.2 3 10.9 1.9 19.1-5.9 6.3-6.1 5.8-7-3.8-6.3-4.4.3-8 .1-8-.3 0-1.1 27.4-26.6 36.4-33.9 17.7-14.5 23.7-18.9 37.9-27.9 8.2-5.2 18.9-9.1 29.9-10.8 15.2-2.4 18.8-4.8 26.1-17.5 1.4-2.5 3.8-5.4 5.2-6.3 1.4-.9 2.5-2.3 2.5-3.1 0-1.8-4.2-1.8-12 0zM721.80131 7.58092c0 .4 2 3.3 4.5 6.4 4.7 5.9 10.8 16.1 12 19.9.4 1.2 4.3 10.1 8.7 19.8 4.4 9.8 8.9 19.6 9.9 21.9 1.1 2.4 5.4 13 9.5 23.5 4.2 10.6 9.9 23.7 12.7 29.1 6.1 11.8 17 25.2 29.9 36.9 5.1 4.6 11 10 13.2 12.1 2.3 2.1 4.2 3.3 4.5 2.6.2-.6-4.4-8.2-10.2-16.8-15.2-22.7-20.7-33.8-26.7-53.6-3.4-11.5-20.2-50.7-27.2-63.5-6.7-12.3-11.4-17.9-23.4-28-2.9-2.4-15.8-11-16.6-11-.5 0-.8.3-.8.7z"/>
  <path d="M795.80131 117.28092c0 3 9.6 22.5 15.4 31.3 6.4 9.8 25.7 32.2 37.2 43.3 27.5 26.4 62.6 53.2 92.1 70.1 36.9 21.1 49.4 30 68.4 48.6 13.5 13.1 17.8 22.7 18.6 41.5.5 9.3.1 14.3-1.7 24.9-1.3 7.7-2 15.4-1.7 18.3l.4 5-8.7 9.1c-4.8 5-9 10.1-9.5 11.4-.5 1.6.1 3.7 1.8 7.1l2.6 4.9-2.3 4.7c-1.9 3.9-2.1 5.4-1.4 8.3.5 2 1.2 4.5 1.5 5.7.3 1.3-.7 4-2.5 7-1.7 2.7-5.9 10.7-9.3 17.7-7.4 15-8.6 21.7-4.9 27.5 2.6 4.2 4.7 5 6.6 2.4.8-1.1 3.9-2.8 7-3.7 7.4-2.1 12.6-7.7 19.2-20.4 6.8-12.9 6.9-16.6 1.2-24.2-3.1-4.1-4-6-3.5-7.9.3-1.4.8-4.2 1.2-6.3.5-3.3 1.2-4.1 4.8-5.8 4.7-2.2 14.1-12.3 17.3-18.6 2-3.8 2-4.5.8-9.5-1-3.5-1.4-11-1.4-22.3 0-16.1-1.3-31-3.2-35.8-.4-1.2-2.5-7.5-4.5-14-5-15.9-9.5-22.7-28.5-43.6-12.9-14.3-18.3-18.3-72.2-53.3-14.4-9.4-35.9-24.9-42.3-30.7-2.3-2-9.7-8.3-16.5-14.1-16.2-13.6-27.7-25.1-42.6-43-6.7-8-14.3-16.3-16.9-18.5-2.6-2.2-6.3-5.3-8.1-6.8-2-1.8-3.8-4.5-4.4-6.8-.8-2.8-1.9-4.3-3.6-4.9-4.4-1.7-6.4-1.2-6.4 1.4z"/>
  <path d="M419.60131 195.68092c-1.2 1.6-3.4 4.8-4.8 7.1-9.8 16.5-13 18.7-28.7 20.1-27 2.4-47 9.5-70.2 24.8-11.3 7.5-28.8 24.9-38.4 38.4-10.6 14.9-17.4 27.2-40.2 72.8-10.9 21.7-20.6 40.5-21.5 41.7-1.5 2-6.4 12.6-11.8 25.8-.9 2.2-3.8 6.1-6.6 8.7l-5 4.8h3.6c2 0 3.9.3 4.1.7 1.1 1.7-14.8 59.6-18.4 67.7-.6 1.1-3.5 3.9-6.6 6-11.4 8-16.4 13.6-31.3 35.1-4.5 6.6-12.6 17.6-17.8 24.5-12.8 16.7-28.2 42-28.2 46.3 0 1.1 1.3 1.8 3.8 2.3 2 .4 4.5 1.1 5.5 1.6.9.5 5.7 1.7 10.5 2.8 9.2 2 18.2 5.5 18.2 7.1 0 .5-1.1 6.6-2.5 13.5-2.7 13.4-3.3 29.8-1.5 37.6.5 2.4 1.2 5.5 1.5 7 .3 1.8 1.2 2.8 2.8 3 1.8.2 2.2.9 2 3.3-.1 1.6-.7 13.8-1.2 27-1.2 26.5-.7 24-11.4 57-8.7 26.8-10.5 35.1-11.1 51.3-.2 4.6-.7 8.7-1.2 9.2s-3.9.5-8.3-.2c-5.5-.8-9.9-.8-17 .1-10.8 1.3-12.6 2.2-26.8 12.8-5 3.7-13.1 9.5-17.8 12.8-37.1 25.6-41.8 30-43 40-1.8 14.2 5.9 46.3 16.7 69.5 4.4 9.5 8.8 17.4 9.4 16.8.4-.4-.6-3.3-9.6-27.8-12.4-33.9-16.5-54.2-12.6-63.4 1.9-4.6 7.8-9.2 16.9-13.2 8.8-3.8 14.9-7.5 28.7-17.4 11.7-8.4 25-16.1 31.5-18.3 13-4.5 39.7.1 50.9 8.6 2.1 1.6 5.9 3.7 8.4 4.6 3.9 1.4 4.9 2.3 6.1 5.6.8 2.2 2.4 6.6 3.6 9.7 1.3 3.2 1.9 5.8 1.4 5.8s-2.6-1.1-4.7-2.4c-7.1-4.5-22.7-11.4-36.1-16l-13.4-4.7-7.7 1.1c-4.3.6-11 2-14.9 3.1-15.2 4.2-37.8 16.8-46.6 25.9l-4 4.2 3.5-1.5c2-.8 6.7-3.2 10.5-5.3 11.4-6.5 33.7-14.6 43.2-15.9 3.9-.5 6.2-1.5 9.3-4.3 2.9-2.4 4.6-3.3 5.5-2.6 7.7 5.6 11.6 8 19.1 12.1 28.4 15 52.8 33 55.3 40.6.9 2.5.8 4.6-.4 9.1-1 3.8-1.2 6.3-.6 6.9.5.5 3.7.8 7 .5 4.9-.3 6.7-1 8.9-3.1 3.1-2.9 5.9-2.3 5 1.1-.5 1.8-.1 2 3.6 1.9l4.1-.2.3 4.3c.2 2.5-.3 5.6-1.2 7.4-.9 1.7-1.6 3.7-1.6 4.5 0 1.4-2.5 5.9-10.8 19.4-6.1 10-14.9 28-17.7 36.3-4.3 12.7-3.2 27.2 3.1 41.4 9.3 21.2 31.5 48.3 57.5 70.4 7 5.9 11.2 10.1 11.5 11.8 1.2 5.1 11.7 33.7 14.4 39 4.1 8 11.7 18.9 18.5 26.6 7.3 8.3 19.6 18.1 44 34.9 10.3 7.1 24.4 16.9 31.4 21.8 16.9 11.7 52.2 39.2 64.1 49.9l9.7 8.6-.4 5.9c-1.2 18.8-2.2 22.3-17.4 62.5-8 21.3-20.3 36.6-32.8 40.8-8 2.7-9.7 2.1-3.9-1.3 2.5-1.4 5.3-3.8 6.2-5.1.9-1.4 3-3.3 4.7-4.1 2.5-1.3 2.8-1.9 1.8-3.1-1.7-2.1-10.7-1.8-14.9.5-1.9 1-5.1 2.2-7 2.6-1.9.4-4.4 1.4-5.5 2.1-1.1.8-2.8 1.4-3.8 1.4-2.5 0-10.7 3.8-10.7 5 0 .6-.9 1-1.9 1-1.1 0-2.6.9-3.4 2.1-.8 1.1-3.8 3.3-6.5 4.7-2.8 1.5-7.2 4.3-9.7 6.2-2.6 1.9-6.1 4.5-7.8 5.7-1.6 1.3-4 2.3-5.3 2.3-1.6 0-5.1 2.8-11.1 8.8-8.5 8.5-18.6 16.3-25.5 19.7-1.8.9-5.8 3.6-8.8 6-3 2.5-7.2 5.6-9.3 7-5.2 3.5-21.6 19.9-26.5 26.5-2.2 3-5.9 7.7-8.1 10.5-2.2 2.7-4.5 6-5 7.2-.5 1.1-1.5 2.4-2 2.8-1.9 1.1-5.1 9.3-5.1 12.9 0 3.6 1.3 4.8 2.3 2.2.7-1.8 10.8-9.9 11.5-9.2.2.3-.3 2.1-1.2 4-.9 1.9-1.6 3.7-1.6 4.1 0 .3-1.1 3.1-2.5 6.1-1.4 3-2.8 7.2-3.1 9.4-.4 2.2-1 4-1.5 4-.4 0-1.1 2-1.5 4.5-.3 2.5-1 4.8-1.5 5.1-.5.3-.9 2-.9 3.7 0 6.9-3.1 17.4-8.4 28.6-3.1 6.4-5.6 12.4-5.6 13.4 0 .9-.4 2.5-.9 3.5-.5.9-1.4 3.6-2.1 6-1 3.8-.9 4.7 1 7.8 2.7 4.2 6.9 7.4 13.7 10.2 8.4 3.5 13.2 2.8 28-4 6.2-2.8 6.6-3.1 4.3-3.8-1.4-.5-8.9-.8-16.7-.9-7.9-.1-14.3-.3-14.3-.6 0-1.9 4-7.8 8.5-12.6 5.9-6.2 7.8-11 9.6-23.9 2.5-18.2 5.3-31.2 8.5-40.8 4.7-13.7 17.4-39.3 23.2-46.6 7.5-9.4 7.5-9.5 7.4-14.1l-.2-4.3 4.2-.7c8.6-1.3 9.9-1.7 12.4-4.3 1.3-1.5 2.7-4.4 3.1-6.6.5-3.2 1.6-4.6 6.5-8.4 4.1-3.2 7-6.6 9.5-10.9 2.4-4.4 4.1-6.3 5.4-6.3 1.1 0 3.7-.9 5.9-2 4.9-2.5 5-2.5 5 .2 0 1.3.4 3 1 3.8.7 1.1 1.2.3 2.2-3.3 1-4 1.6-4.7 3.8-4.7 2.5 0 2.5 0 2.2 7.7-.4 9.7 2.4 23.3 6.8 32.6 7.8 16.5 30.7 32 44.5 30.3 2.8-.4 8.9-.9 13.8-1.3 7.2-.4 8.7-.3 8.7.9 0 .8-1.8 2.3-4 3.3s-4 2.1-4 2.5c0 1 5.3 2 10.8 2 3.8 0 4.9-.5 7.8-3.5 1.8-1.9 4.1-3.5 5.1-3.5 2.5 0 8.7-4 11.1-7 5.7-7.4 6.7-10.8 6.6-23.5-.1-13.8-1.2-18.2-4.4-16.5-2.3 1.3-2.7 3-.5 3 1.1 0 .8.9-1.1 3.7-1.3 2-2.7 4.8-3.1 6.2-.3 1.3-1.7 4-3 6-1.3 1.9-2.6 4.6-3 6-.8 3.4-5.7 10.4-9.4 13.5-4 3.4-9.9 3.4-27.8.1-14.7-2.7-16.5-3.5-26.8-12.9-6.9-6.3-10.2-11.6-15.8-25.3l-3.7-9.2 2.9-5.3c2.2-4 5.7-7.5 13.7-14 10.8-8.6 19.8-14.3 20.9-13.2.3.3.2 1.7-.4 3.1-1.8 4.7-1.1 10.2 1.7 13 3 3 3.9 2.6 2.3-1.1-1.1-2.4-.8-3 4.8-9.3 4.5-5.1 6.8-6.9 9-7.1 1.9-.2 4.3-1.7 6.5-4 6-6.2 16.9-23 21.5-33.1 2.4-5.3 4.8-10.5 5.3-11.6 3.1-6.7 5.7-14.9 9.5-29.8 2.3-9.2 4.5-17 4.9-17.4 1.3-1.4 5.3 2.1 9.5 8.3l4.4 6.5-.6 7.4c-.3 4-1.1 8.4-1.7 9.7-.7 1.2-4.9 6.1-9.4 10.8-4.5 4.7-8.8 10.1-9.6 12-.7 1.9-3 5.3-5 7.5-2.4 2.6-4 5.4-4.5 7.9-.3 2.2-1.7 6-3 8.5-4.7 9.3-10.8 24.8-12.6 32.1-.9 4.1-3.6 11.5-5.8 16.3-2.3 4.9-4.1 9.5-4.1 10.3 0 2.1 3.8 1.7 5-.6.6-1.1 1.7-2 2.5-2 1.2 0 1.5 2.2 1.5 12.8 0 14 1.1 17.6 5.3 17 2.1-.3 2.2-.9 2.5-10.3.2-5.5-.2-15.2-.7-21.6-1.1-12.8-1-13.2 8.4-36.4 3.9-9.8 6.5-19.2 6.5-24.1 0-4.5 5.3-10 10.8-11.2 4.9-1.2 13.3-7.9 17.7-14.3 2.6-3.6 3.1-5.3 3.4-12.1.2-4.3.6-7.8.9-7.8.3 0 6.2 5.5 13.1 12.3 12.9 12.5 17.1 15.3 29.1 19.4 5 1.6 9.2 1.8 45.5 1.8 39.1-.1 40.1-.1 45.6-2.3 8.2-3.3 14.1-9 20.5-19.9 7.4-12.5 11.6-22 14.4-32.3 1.2-4.7 2.4-9 2.5-9.7.4-1.4.2-1.2 19.4-12.3 20.7-12 30.7-16 69.1-28.1 34.8-10.9 52-17.1 69-24.6 6.3-2.9 20.3-12.7 27.3-19.2 7.7-7.3 16.6-18.7 22.9-29.4 4.2-7.1 8.8-19.2 8.8-23.2 0-1.1 1.4-6.3 3-11.5 1.7-5.2 3.5-13.1 4.1-17.4 1.2-9.7 1.9-11.1 7-13.6 19.6-10 53.1-40.8 68-62.4 13.2-19.2 15.6-23.2 18.2-29.8 3.1-7.7 3.4-14.5 1.3-26.4-.8-4.4-2-11.5-2.6-15.9-.7-4.4-2.5-12.9-4.1-18.8-1.6-6-2.7-11.2-2.4-11.7 2.1-3.4 11.1-1.2 20.5 5.1 3 2 6.9 4.4 8.7 5.3 3.7 1.9 10.3 8.3 10.3 10.1 0 1.1-1.6 3.3-7.3 10.5-3.3 4.2-6.9 10.1-6.5 10.5.3.3 1.4.7 2.4.9 1.1.3 4.5 1.6 7.6 3.1 3.1 1.4 8.9 3.2 13 4.1 4 .8 8.7 1.9 10.3 2.3 1.7.5 4.3 1.2 5.9 1.6 2.6.6 2.8.5 1.6-1-1.9-2.2-11.9-8-16.6-9.5-7.7-2.5-7.9-2.7-3.9-6.4 3.2-3 3.5-3.8 3.5-8.9 0-5.3-.3-5.8-5-11-3.8-4.2-7.5-6.8-15.3-10.8-5.6-2.8-10.3-5.3-10.5-5.4-.2-.2 1-2.2 2.7-4.6 3.7-5 3.9-7.6.9-11.4-1.4-1.8-1.8-3.2-1.2-4 4.4-6 11.7-17.5 19.5-30.7l6.3-10.7 8-3.2c4.5-1.8 12.2-5.2 17.1-7.6 9.6-4.8 32.4-13.6 44-17.2 7.4-2.2 18.2-3.1 22.8-1.8 4 1.1 3.6-1.6-.7-4.1-7.1-4.2-25-4.6-38.1-.9-12 3.4-28.9 11.1-39.9 18.2-5.2 3.3-7.6 4.2-7.6 2.9 0-2 2.8-4.8 7-6.9 2.7-1.4 7.1-4.7 9.8-7.4 6.3-6.2 7.2-6.7 28.2-13.6 19.8-6.4 33.4-8.7 41.1-6.7 3.9 1 4.2.9 2.4-.4-3.2-2.4-8.5-3.4-18.2-3.4-7.8 0-26.8 2.6-34 4.6-3.5 1-2.9-1.1 2.6-8.5 7.2-9.8 7.5-10.8 7.6-19.6.1-6.2.6-9 2.3-12.5 1.2-2.4 2.7-7.2 3.4-10.6 1-5.7.9-6.4-1.6-12-4-8.7-4.4-13.3-1.4-16.9 8.2-10.2 13.8-23.6 13.8-33.3 0-8.2-2.1-15.8-8.6-31.7-6-14.9-8.7-23.1-9.8-30.6-.4-2.6-2.1-6.8-3.8-9.4-2.8-4.2-3-5.1-2.5-10.3.3-3.2-.3-13.1-1.4-23.1-2.7-24-2.5-25.3 9.2-48.4 4.6-9.1 4.9-10.3 4.9-17.3 0-4.1.6-10.7 1.4-14.7 3.5-17.4 3.9-21.7 2.6-27.8-2.2-10.5-6.1-14.1-20.5-19.4-3.8-1.3-7.3-2.9-7.9-3.5-.6-.6-1.3-4.7-1.7-9.1-.5-6.7-1-8.4-3-10.4-1.3-1.4-3.5-2.6-4.9-2.7-2-.2-2.9.4-4.4 3.7-5.5 11.2 1.1 25.4 13.3 28.4 2 .4 5.4 1.2 7.6 1.7 5.3 1.2 5.4 2.7 1.1 15.6-4.4 13.3-5 19-3.7 37.3 1.4 21.3-.6 43.8-5.3 59.5-.8 2.5-2.2 8.1-3.1 12.5-1.7 7.7-3.7 11.1-5.8 9.8-.7-.4-.7.2-.2 1.8 1.3 3.6.9 11-.9 17-3.1 10.2-1.5 23.5 3.4 29.9 2 2.6 2.2 2.4 3.4-3 .3-1.4 1.2-3.4 2-4.5 1.7-2.4 1.4-3.1 8.3 17 5.4 15.7 5.4 19.8-.1 37.7-4.4 14.3-4.7 20.9-1.1 30.4 1.4 3.6 2.5 8.1 2.5 9.8 0 1.8-2 7.3-4.5 12.4-2.5 5-4.5 10-4.5 11.2 0 5-2.2 8.5-16.9 27s-15.6 19.1-19.1 11.2c-2-4.2-2.1-5.8-1.5-15.8.4-6.5.2-14.5-.5-19.5-1.4-10.2-.4-18.3 3.8-32.9 4.6-15.8 5.5-22.2 4.8-33.5-.8-12.5-2.9-24.1-6.5-37-1.6-5.5-3.2-11.6-3.6-13.5-1-5.2-4.3-16.2-5.7-18.7-.8-1.7-.8-2.9 0-4.8 2.6-5.6.6-13.3-5.8-23.2-1.3-2.1-1.2-2.8 1.7-8 6.7-12.3 8.2-26.5 3.7-35.8-3.5-7.5-8-10.5-19.4-12.9l-5.5-1.2-.8-5.3c-.8-6.2-3-10.1-8.4-15.2-5.6-5.3-8.9-6.3-18.7-5.5-6.8.6-8.5.4-9.6-.9-.7-.8-1.9-1.5-2.8-1.5-3.5 0 1.3 16.5 6.2 21.5 3.4 3.3 4.6 3.2 9.3-1.4 3.8-3.5 8.7-5.6 10.6-4.4.4.2.5 3.9.1 8.1l-.6 7.7 3.9 3.6c4.6 4.4 8.8 5.9 14.2 5.2 3.2-.4 4.2-.2 4.7 1.2.4.9-1.2 7.2-3.6 14.5-3.1 9.3-4.1 13.7-3.7 16 .8 4 6.1 11.7 8.6 12.5 4.4 1.4 4.4 2.8-.4 14.8-2.5 6.3-4.5 12.9-4.5 14.5 0 3.5 2 5.5 5.2 5.1 3.2-.5 4.8.8 4.8 3.8 0 2.6 1.3 8.6 6.1 28.3 5.3 21.9 6.2 29.3 5.5 42.6-.6 11.9-.7 12.4-4.3 17.8-2 3.1-4 5.6-4.4 5.6-.5 0-1.5-1.3-2.3-2.8-2.5-4.8-7.8-9.2-12.4-10.4-4.9-1.2-4.9-.8-1.6-12.3 2.6-9.3 1.4-16.2-3.7-21.4-3.6-3.6-4-4.3-3.3-7.6.5-3 .2-4.1-1.7-6.1-3.2-3.5-8.2-5.4-14.8-5.8-3.1-.2-7.4-1.1-9.5-2.1-3.8-1.6-9.2-1.7-12.7-.1-1.2.5-1.8 0-2.3-1.9-.4-1.5-1.8-3.8-3.3-5.1-2.5-2.3-2.5-2.6-1.3-6.9.7-2.4 1-5.1.7-5.9-1-2.7-6.6-4.7-13-4.8-3.4 0-7.8-.8-9.7-1.6-5.2-2.3-15.7-1.9-18.2.8-2.3 2.5-2.9 2.5-5 .1-2-2.4-8.3-3.5-14.8-2.6-3.9.5-5 1.1-5 2.5 0 2.5-6.6 8-9.6 8s-6.4 1.7-8.1 3.9c-.9 1.3-3.2 1.6-11.5 1.7-11.8 0-14.1.9-16.4 6.2-2.1 4.9-5 13.8-5.9 18.2-.4 1.9-1.5 4.9-2.5 6.7-1.7 3-1.8 3.5-.4 6.5 3.4 7.3 5.4 10.4 7.9 12.3 2.5 1.9 2.7 1.9 5.6.2 3-1.7 3.1-1.6 6.5 1 3.4 2.5 3.7 2.6 8.7 1.3 4.8-1.1 5.6-1 9.5 1 3.3 1.7 5.2 2.1 8.2 1.6 2.2-.3 5-.1 6.4.5 1.9.9 2.9.8 4.6-.4 1.6-1.1 2.7-1.2 4.9-.4 3.6 1.3 5.8.5 7.9-3.3 2.1-3.6 2.6-3.7 6.4-.5 3.3 2.8 6.9 3.2 8.8 1 1.8-2.1 2.4-2 7.5 2.5 3.6 3.1 5.4 4 8.4 4 2 0 4.6.7 5.7 1.5 1 .8 3.5 1.5 5.4 1.5 4.2 0 11.3 3.6 19.4 9.9 10.3 8 23.1 16.1 25.4 16.1 1.2 0 2.7-.9 3.4-2 .7-1.1 2.2-2 3.3-2 3 0 6.3-2.7 6.7-5.3.2-1.4 1.1-2.3 2.6-2.5 2-.3 2.2 0 2.2 4.7 0 3 1.1 8.2 2.6 12.4 1.6 4.5 2.7 10.1 3 15.1.4 7.9 1.4 10.6 4 10.6 1.5 0 4.4-5 4.4-7.7 0-1-1.2-6-2.6-11.1-2.7-9.3-2.7-11.5 0-9.3.8.7 2.5.9 4 .5l2.6-.6v13.7c0 13-2.6 32.1-5 36.5-1 1.7-1.8-.1-4.6-9.4-1.8-6.1-5-11.7-7.1-12.4-1.7-.5-1.6 2.3.2 12.8.8 4.7 1.5 10.4 1.5 12.7v4.1l-7.5 3.1c-7.7 3.3-17.8 5.6-19.4 4.6-.5-.3-1.2-1.9-1.6-3.6-.5-2.4-.2-3.6 1.4-5.3 2.8-3 2.7-3.4-.9-3.2-2.9.1-3.2-.2-5.9-7.9-4.1-11.5-8.7-19.2-14.9-25.3-6.1-6-9.1-7.5-12.4-6.3-2.2.8-2.2.8.6 3.2 5.1 4.4 9.5 11 12.6 19.1 1.7 4.5 2.8 8.4 2.3 8.9-.4.4-3.5-.5-6.8-2.1-6.9-3.4-13.1-5.1-29.4-8.1-11.7-2.1-13.9-2.2-40.1-.6-15.3 1-27.2 5.7-34.1 13.5-8.7 9.9-20.1 37.9-23.5 57.6-2 11.7-1.5 14.9 2.3 14.4 3.1-.3 4.1-2.6 6.7-15.3 2.4-11.9 7.3-27.8 9-29 .8-.5 6.5-4.2 12.6-8 6.1-3.9 13.9-8.8 17.3-10.9 11.4-7.2 23.4-12 31.3-12.4 9.5-.5 20.6 1.9 29.6 6.4 8.8 4.4 24.2 14.3 23.5 15-.3.3.5 2.1 1.8 4 3.3 4.8 3.8 13.9 2.6 44.9-1.1 27.6-1.7 31.7-5.6 36.4-2.1 2.4-2.2 3-1 3.5 2.2.8 5.6-.8 8.6-4 5.8-6.3 7.7-13 8.7-30.4l.7-12.5 4-.3c2.2-.2 4.4-.8 5-1.3 1.9-1.9 4.6-.9 6.2 2.6 2 4.3 3.3 4.5 3.3.5 0-2.3.7-3.3 3.1-4.6 4.2-2.1 5.3-.7 2.9 3.9-1.1 2-2 4.8-2 6.2 0 1.5-2.5 9.9-5.5 18.8s-5.5 16.9-5.5 17.8c0 2.1-5.4 5.6-9.9 6.5-1.7.4-3.1.9-3.1 1.2 0 .4 1.8 2.5 4.1 4.8 3.9 4 4.1 4.4 5.9 16 1 6.5 2.6 18.2 3.5 25.9 1.6 14 1.6 14.1-.5 20.5-3.5 10.5-17 32.7-27.7 45.6-3.2 3.8-7.4 9-9.4 11.4-6.4 8-26.2 28.5-33.4 34.7-9.5 8.2-20.3 20.9-24.5 29.1-7.7 14.4-13 24.9-15.3 30.4-3.8 8.5-18.6 30.3-26.2 38.6-8.5 9.1-23.1 19.6-35.8 25.6-5.4 2.5-10 4.6-10.3 4.6-.3 0-5.1 2-10.7 4.4-5.6 2.4-16 6.5-23.2 9.1-42.8 15.2-54.9 20.4-68 28.9-7.1 4.6-8.9 5.4-10.3 4.5-1.4-.9-2.6-.7-5.3.6-11.7 6-18.2 14.1-30.4 37.9-13.9 27.2-19.3 34.3-27.7 36.4-6 1.5-66 1.6-70.7 0-10.4-3.3-18.1-10.3-35.5-32.3-11.3-14.3-14.3-17.3-21.9-21.5-3.4-2-6.3-4.4-6.5-5.3-.6-2.8 2.1-2 7.9 2.4 6.5 4.9 10.9 7.3 10.9 6 0-.5-.3-1.1-.7-1.3-1.7-.7-17.1-18.5-18.7-21.6-.9-1.7-2.2-3.2-2.9-3.2-.7 0-5.3-4.1-10.2-9.1-5-5.1-11.7-11.4-15-14.2-3.3-2.7-6.2-5.3-6.5-5.7-1.9-2.6-37.3-29.1-54.1-40.4-42.3-28.5-49-33.6-58.6-44.5-10.1-11.6-15.1-20-24-40.1-2.7-6.3-6.3-14.9-7.9-19-2.7-7-3.9-8.5-18.4-23.5-29.5-30.4-40.1-43.3-47-57.4-10-20.2-7.1-35.9 14.2-75.6 19.3-36.1 19.3-36 18-40.4-.7-2.1-2.3-4.6-3.7-5.5-2.2-1.4-2.5-2.4-2.5-7.2 0-3.1.7-8.1 1.6-11.1 2.3-7.9 1.5-24.5-1.6-33.6-2.2-6.6-2.3-7.1-1.2-25 .9-15.9 1.4-19.4 4.2-28.2 3.7-11.8 10.4-27.7 16.7-39.5 4.6-8.5 17.6-27 19.1-27 1.3 0 7.2 7 7.2 8.5 0 .7-.7 3.2-1.5 5.6-1.8 5.1-1.2 9.6 1.5 10.4 5 1.6 19-6.4 19-10.8 0-2.4 4.6-8.7 6.4-8.7.7 0 5.1-3 9.7-6.6 11.7-9.3 13.7-10.4 19-10.4 3.6 0 5.1-.5 7-2.6 2.2-2.3 2.9-2.5 7.8-1.9 5 .6 5.5.5 8-2.3 2.6-2.8 3.2-3 14-3.6 7.4-.5 11.6-.4 12.5.3 1.9 1.6 7.2 1.7 9.1.1.9-.8 3.4-1.3 5.8-1.2 3.2.2 4.7.9 6.4 3 1.3 1.5 2.3 3.2 2.3 3.8 0 1.5 3.8 4.8 7.8 6.8 3.1 1.6 3.6 1.6 5.8.1 1.4-.9 2.4-2.5 2.4-3.8 0-1.3.6-3.2 1.4-4.2 1.3-1.8 1.4-1.8 2.6.6 2.9 5.5 8 10.6 11.1 11.3 3.6.7 6.9-1.4 6.9-4.5 0-3.5 1.9-2.9 4.5 1.5 5.1 8.7 13.1 13.3 15.3 8.8.5-.9 1.4-4.3 2.1-7.4 1.3-6.2 2.7-8.1 3.7-5.1.4 1 2.5 3.7 4.7 6 5.2 5.5 9.8 5.9 14.9 1.4 4.3-3.7 10.3-15.3 12.7-24.4 1.1-4 2.3-8.3 2.9-9.7.5-1.4.7-4 .4-5.9-.4-3.2-.6-3.3-4.1-2.7-2 .3-4.6.9-5.8 1.2-1.8.5-2.6-.2-5-5.2-3.4-6.8-6.5-9.4-12.4-10.1-2.8-.3-5-1.3-6.1-2.6-1.5-1.9-2.8-2.2-12.7-2.3-8.5-.1-11.4-.5-12.6-1.7-2.3-2.4-8.1-3.7-13.5-3-4.2.5-4.9.3-6-1.7-1.4-2.6-6.7-5-11.2-5-1.8 0-5.2-.7-7.5-1.6-3.7-1.4-5.1-1.5-10.2-.4-5.5 1.1-6 1.5-7.4 5.1l-1.5 3.9-6.9.2c-3.7.1-13.3.1-21.3 0-17.3-.2-22.7 1.2-23.7 6-.7 3.7-1.7 4.2-8.8 4.3-7 .1-13.2 2.9-16.4 7.4-1.2 1.6-3.2 3.3-4.4 3.6-1.2.3-4.3 1.5-6.9 2.7-4.2 1.9-4.5 2.3-3.6 4.3 1.3 2.9-.3 6.1-3.4 7-1.9.5-11.4 4.4-12.6 5.1-.2.1.1 1.8.6 3.7 1.2 4.4 1 4.7-11.8 18.7-14.2 15.5-18.1 20.5-27.2 34.2-7.4 11.1-8.3 12.1-8.9 9.8-.4-1.4-.7-3.9-.8-5.6-.1-1.7-1.4-6.1-3.1-9.7-1.6-3.7-3-8.2-3-10.2 0-4.6 3.6-20.9 5.4-24.4.8-1.5 2-5.4 2.7-8.8 1-5.1 1-6.9-.1-10.3-.8-2.3-1.4-7-1.4-10.4 0-8.1 2.4-12.2 8.8-15.7 4.7-2.6 5.7-3.8 13.4-16.1 1.9-2.9 5.2-7.6 7.4-10.3 2.1-2.8 7.7-10 12.4-16.2 8.5-11.3 14.8-17.3 17.9-17.3 1.7 0 1.7.1-.1 2.1-1.6 1.7-1.6 2.2-.4 3 4.8 3.2 17.7-2.2 21-8.6 2.4-4.7 2-23.7-.8-35.7-3.7-16.5-2.6-24.2 4.7-32.3 1.6-1.7 4.3-5.7 6.1-9 1.8-3.3 5.9-9.7 9.2-14.3l5.9-8.2h6.3c4.7 0 9.3-1.1 19.4-4.5 7.2-2.4 14.9-5.3 17-6.4 2.2-1.1 9.1-3.6 15.3-5.5 6.3-1.9 14.1-4.4 17.4-5.6 3.3-1.2 10.3-3.2 15.5-4.4 8.6-2.2 20.3-5.2 33.5-8.9 2.8-.8 8.2-2.9 12-4.7 3.9-1.7 9.1-3.8 11.8-4.6 5.5-1.7 6-2.9 1.6-3.8-9.5-1.9-59.1 2.5-72.4 6.4-16.3 4.7-28.9 9.2-38.7 13.6-6.5 3-12.1 5.4-12.5 5.4-.4 0-3.1 1.2-6 2.7-2.9 1.4-5.6 2.3-6 2-.4-.4.3-2.1 1.6-3.7 1.2-1.7 1.9-3 1.6-3-1.3 0-6.4 3.8-13 9.5-3.8 3.4-7.7 6.6-8.6 7.1-2.2 1.2-15.7 16.9-20.3 23.7-4.5 6.6-12.1 25-14 34.2-.9 3.8-1.9 16.1-2.4 27.2-.5 13.5-1.2 20.6-2.1 21.6-.6.9-4.4 3.4-8.4 5.8-8.4 4.9-30.9 27.1-40.5 39.8-11.8 15.7-19.8 34.2-20.9 48.4-.3 4.7-2.2 12.5-5.3 22.2-8 24.6-8.4 30.8-3.3 42.8l2.6 6.2-1.7 9c-.9 4.9-2.9 14.1-4.3 20.3l-2.6 11.3 2.2 5.5c2.1 5 2.2 6.3 1.6 18.4-.4 7.2-1.1 13.3-1.5 13.5-.5.3-3.7-3.2-7.3-7.8-7.5-9.3-10.8-11.7-16.6-11.7-3.5 0-4.3-.4-5.6-3.1-.9-1.7-2.1-5.8-2.6-9.1-1.5-9.5-2.1-10.2-8.4-9.4-8.1.9-9.2.1-5.4-4.2 5-5.6 6.1-9.5 6.6-22.2.2-6.3 1.1-16 1.9-21.5 1.8-12 1.2-19.5-2.3-28.4l-2.6-6.5 2.1-6c1.1-3.4 3.6-10.6 5.6-16.1 4.3-12.5 5.4-19 6.2-37.5.6-13.6.5-14.8-1.5-19.2-1.2-2.5-3.1-5.4-4.2-6.4-2.3-2.1-2.3-4.4-.3-14.9.9-4.4 2.5-13.2 3.5-19.5 1.1-6.3 2.6-14.4 3.4-18 2.6-11.7 4.6-23.2 4.2-23.7-.4-.4-2.5 3.6-7.9 15.6l-2.9 6.4-2.7-3c-2.2-2.5-4.4-3.5-11.7-5.3-7.7-1.9-10.5-2.2-19.9-1.6l-11 .7 6.5-6.9c13.7-14.5 25.5-32.2 38-57.1 12.6-25 15.6-28.2 27.4-30.1 17.7-2.8 21.2-9.7 25.5-50.6 1.1-10.4 2-21.3 2-24.3 0-5.1.3-5.7 4.3-9.6 5.8-5.5 25.7-40.3 40.3-70.5 4.2-8.5 9.2-18.7 11.2-22.5 2-3.9 4.5-9 5.6-11.5 4.4-9.9 18.7-37.1 22.9-43.6 9-14 27-29.7 42.3-37 10.3-4.9 16.9-6.2 34.9-6.9 30.2-1.2 44.4-6.8 48-18.8 1.5-5.1 2.1-23.9.9-27.1-.9-2.4-2.9-1.9-5.6 1.2zm-114.8 549.6c0 .8-.4 1.8-1 2.1-.5.3-1-.3-1-1.4 0-1.2.5-2.1 1-2.1.6 0 1 .6 1 1.4zm603.2 37.1c1.5 2.5 3.1 5.8 3.4 7.3.4 1.5 1.3 3.9 2 5.4.9 1.7 1 2.9.4 3.3-1.1.7-13.9-8.1-14.7-10.1-.7-1.8 3.9-10.4 5.6-10.4.3 0 1.8 2 3.3 4.5zm14.4 4.2c-.5 1.2-1 1.3-1.8.5s-.8-1.5.3-2.8c1.5-1.8 2.5-.4 1.5 2.3zm-795.6 59.1c0 1.3-1.2 2.2-2.2 1.6-1-.6-.1-2.4 1.3-2.4.5 0 .9.4.9.8zm683 18.6c0 .8-11.2 7.7-11.8 7.2-.8-.9 2.6-4.2 6.1-6 3-1.5 5.7-2.1 5.7-1.2zm137.8 30.2c.5 12.3-.6 20-3.2 23.1-2.2 2.5-2.6 2.6-7.1 1.7l-4.8-.9-3.8-8.9c-2.2-4.9-3.9-9.4-3.9-10 0-.6 3.3-2.6 7.4-4.4 4-1.8 8.6-4.7 10.2-6.3 1.5-1.6 3.3-2.8 3.9-2.6.5.2 1.1 3.9 1.3 8.3zm-779-2.6c2.2 1.6 7.3 6.6 11.1 11.2 7.1 8.4 8.9 12.4 7.9 18.9-.3 2.2-.7 1.9-4.4-3.1-6.7-8.9-21.8-23.3-28-26.8-2.8-1.6-.5-3.2 4.5-3.2 3.7 0 5.7.7 8.9 3zm751.6 19.2c.8 1.2 1.3 2.5 1 3-.8 1.2-4.4-2.1-4.4-3.9 0-2 1.7-1.6 3.4.9zm-1.1 10.5l3.2 1.8-2.8.3c-3 .4-6.1-1.4-5.1-2.9.7-1.2 1-1.2 4.7.8z"/>
  <path d="M524.30131 500.38092c1.7 1.4 3.6 2.5 4.3 2.5.8 0 1.2.5 1 1.1-.2.6-4.7 1.1-10.8 1.3-16.1.5-27.1 1.7-26.7 3 .6 1.9 11.8 7.3 17.5 8.5 3.1.6 7.9 1.1 10.8 1.1 2.9 0 12.7 1.1 21.6 2.4 9 1.3 19.9 2.7 24.3 3.1 4.4.3 10.3 1 13 1.5 2.8.5 13.8 2.1 24.5 3.5 17.6 2.2 26.9 3.9 41 7.4 15.8 3.9 37 6.4 54 6.5 8 0 30.3-2.5 38.4-4.4 2.6-.6 6.1-1.7 7.7-2.6 4.1-2.1 3.6-.3-1.1 3.9-7.1 6.5-21.3 12-29.9 11.7-7.5-.4-7.4-.5-6.6 4.2.9 5.5 4 12.6 6.7 15.5 2.7 2.9 11.7 6.3 16.6 6.3 6.2 0 32.9-8.3 42.7-13.2 4.4-2.3 11.8-6.9 20.8-13 10.2-6.9 9.5-4-1.8 7.3-5.8 5.9-11.2 12.3-12 14.3-3.8 9.1-.8 19.9 9 31.9 9.9 12.2 18.3 13.7 30.3 5.3 7.8-5.4 20.7-19.4 24.4-26.3 1.4-2.6 3.5-6.8 4.8-9.2 2.1-3.8 4.3-10.6 7-21 .5-1.8 1.3-3.8 1.9-4.4.6-.6 1.1-2.6 1.1-4.4v-3.4l-3.2 1.7c-1.8.9-9.6 8.2-17.2 16.1-10.4 10.7-16.4 16-23.5 20.7-11 7.2-20.9 12.6-23.2 12.6-2 0-4.9-3.1-4.9-5.3 0-.8 4.2-4.5 9.3-8 12.8-9 15.7-12.4 20.5-24.8 5-13.1 5.6-15.8 4.2-20.8-1.8-6.9-7.8-8.6-19.4-5.6-3.2.8-7.5 1.5-9.5 1.4-2-.1-4.5.2-5.6.5-1.8.6-2 .2-2.2-3.6-.3-8.4-4.3-14.1-12.2-17.4-5.1-2.1-8-1.8-22.3 3.1-22.5 7.5-25 7.9-39.7 6-23.9-2.9-29.6-3.5-45.1-4.5-19.8-1.3-35.8-3.3-68-8.4-14.9-2.4-39.1-4.7-48.2-4.5-4.6 0-11.7-.4-15.8-1-11.5-1.6-12.1-1.5-8.5 1.4zm290.5 34.2c-.1 1.3-5.9 7.7-6.5 7.2-.6-.7 4.4-7.9 5.5-7.9.6 0 1 .3 1 .7zM856.60131 560.18092c-.8 4.1.1 24 1.3 29 1.4 6.2 5.2 10.7 8.8 10.7 3.2 0 10.7-7 9.8-9.3-.3-.8-2.3-1.7-4.5-2.1-3.1-.4-4.2-1.2-4.7-2.9-3.7-12.6-8.9-27.7-9.5-27.7-.4 0-1 1.1-1.2 2.3zM352.80131 780.18092c-6.2 2.5-15.3 7.5-21.8 12-12.8 8.6-29.5 28.2-37.9 44.5-3.1 5.9-5.7 10.9-5.9 11.1-.1.2-2.3-.5-4.7-1.4-7.3-2.8-8.9-1.6-3.4 2.5 2.5 1.9 4.7 4.2 4.7 5.2 0 .9-2.3 6.7-5 13-2.8 6.2-5.5 12.3-6 13.5-1.3 3.1-2.6 2.9-12.1-1.7-9.4-4.5-10.9-4.8-10.9-2.1 0 2.6 6.3 8.5 12.7 11.8 2.9 1.6 5.3 3.3 5.3 3.9 0 .6-.7 3.4-1.6 6.3-.8 2.9-1.3 5.6-1 5.9.9.8 5.1-3.5 7.2-7.3 1-1.9 2.4-3.7 3.2-4 2.9-1.1 2.2 3.1-2.4 13.2-4.2 9.2-5.5 11.1-9.7 14.1-4.6 3.3-4.7 3.5-3.1 5.3 2.6 2.9 5.8 2.3 12.5-2.3 7.9-5.4 12.2-10.5 16.7-19.8 1.9-4.1 5.4-10 7.6-13 6.4-8.7 22.7-28 23.7-28 .5 0 .9 3.6.9 8 0 5.5.6 9.6 2.1 13.4 2.2 6 9 14.3 14.5 17.7 1.9 1.1 3.3 2.6 3.1 3.3-.2.6-2.6 1.4-5.3 1.9-13.7 2.1-31.3 7.8-32.2 10.4-.5 1.8 4.1 1.6 10.3-.2 5.1-1.6 25.8-5.9 33.2-6.9 2.4-.4 7.5-.1 11.5.5 5.3.8 10 .8 18.2-.1 9.8-1 12.2-1.6 20.4-5.5 11.3-5.3 20.2-13.6 25.3-23.5 3.2-6 3.4-7.2 3.4-16 0-5.2-.4-10.3-1-11.2-.7-1.2-1 1-1 7.5-.1 7.8-.5 10.1-2.7 14.9-3.5 7.6-6.8 11.8-13.1 16.6-18.1 13.9-42 17.1-60.3 8.1-12.7-6.3-17.5-12.5-21-27.6-1.7-7.5-1.5-11.3 1.2-16.9 1.3-2.8 1.5-3.9.6-4.2-2.2-.7-1.3-2 3.6-5.3 5.5-3.7 32-18 40.9-22.1 10.6-4.8 24.5-9 31.4-9.5 6.5-.5 6.7-.5 10.7 3.2 2.9 2.6 5.8 7 9.6 14.9 6.3 12.9 7 15.7 9.1 33.7.8 7.4 2.2 17.2 3 21.9.8 4.7 1.5 11.1 1.5 14.2 0 6.7-.6 7.2-9.6 8.1-16 1.6-38.9 7.1-76.4 18.2-8 2.3-19.8 5.8-26.4 7.6-9.6 2.6-12 3.7-12.8 5.5-1 2.2-6.3 5.4-8.8 5.4-2 0-35.9 11.6-42.4 14.5-3.2 1.4-5.6 2.8-5.3 3.2.3.3 2.5-.4 4.9-1.5 7.7-3.6 34-11.6 51.8-15.7 6.3-1.5 14.9-3.5 19-4.5 14.3-3.4 53.7-10 72.5-12 13.5-1.5 23.5-3.3 23.5-4.2 0-1.5-31.8.2-42.3 2.2-11.3 2.3-11.3 0 0-3.2 18.5-5.3 46.8-11 50.4-10.3 1.6.4 3 0 3.8-.9.6-.8 3.2-2 5.6-2.7 5.1-1.5 5.7-2.6 1.8-3.1-3.2-.3-3.3-1.2-1.5-11.8 1.9-10.5 1.5-33.1-.7-43-2.1-9.2-9.4-26.7-14.1-33.5-7-10.2-16.9-15.1-28.5-14.1-8.2.6-22.5 4.8-34.2 10-4.5 2-8.4 3.6-8.8 3.6-.3 0-3.3-2.3-6.6-5-5.8-4.8-7.9-5.9-7.9-4.2 0 1.2 5.2 8.3 7.3 10.1.9.7 1.4 1.7 1.1 2.2-.3.5-5.1 3.2-10.7 6-9.1 4.6-10.6 5.1-14.6 4.5-2.9-.4-5.2-1.4-6.3-2.6-1.4-1.8-2-1.9-3.6-.9-2.8 1.8-9.7-.9-9.6-3.7.1-4 11.8-19.9 22.3-30.4 8.8-8.7 12.1-11.3 19.4-14.9 4.8-2.4 8.7-4.6 8.7-4.8 0-.7-1.7-.2-7 2zm-39.5 55.7c3.2 1.1 7.8 2 10.2 2 2.3 0 4.3.3 4.3.6 0 1-2.9 3.1-7.4 5.5-2.1 1.2-7.2 4.7-11.3 7.9-6.7 5.3-7.7 5.8-9.9 4.8-1.3-.6-2.4-1.7-2.4-2.4 0-2 8.8-20.4 9.8-20.4.5 0 3.5.9 6.7 2zm-17 26c.3.5-1.6 3.8-4.2 7.2-2.7 3.5-5.5 7.6-6.3 9.2-1 2-1.6 2.4-1.8 1.3-.2-.8.7-3.3 2-5.4 1.3-2.1 3.5-5.9 4.8-8.6 2.4-4.5 4.2-5.8 5.5-3.7zM814.20131 818.78092c-20.3 7.3-35.7 21.7-46.7 43.8-8.2 16.2-12.6 28.5-17.1 47.8-1.5 6-3.3 13.5-4 16.5-1.5 5.8-1.4 7 1 7 2.6 0 13.1-23.7 19.9-45 3.5-10.8 10.5-28 14.1-34.5 8.2-14.7 20.2-27 32.5-33.3 8.8-4.4 8.9-5.4.3-2.3zM503.20131 825.98092c6.5 5.7 13.3 15.6 16.6 24.2 1.6 3.9 2.9 6.6 2.9 5.9.2-2.9 3.2-.6 9.3 7 3.6 4.6 9.6 11.7 13.3 15.8 3.8 4.1 10.2 11.5 14.3 16.5 11.4 13.7 13.3 15.8 13.8 15.2 1.5-1.4-8.5-16.8-18.7-29-3.2-3.8-11.7-15.3-19.1-25.5-19-26.6-26.7-34.2-34.4-34.2-2.6 0-2.5.1 2 4.1z"/>
  <path d="M384.00131 834.08092c-3.9 4.2-6.3 12.7-8.7 29.9-.4 3.1-1.4 5.4-3 6.9-2.4 2.2-2.8 2.3-10.1 1.4-6.1-.8-7.9-.7-9 .4-2.2 2.1-1.6 5.2 1.5 8 3.3 3.1 15.2 8 21.5 8.8 5.8.8 12.7-1.8 16.6-6.2 3.5-4 6.4-13.3 5.7-17.7-1.7-9.6-2.6-12.7-5.2-17.7-1.5-3-3.3-7.7-4-10.4-1.3-5.8-2.3-6.5-5.3-3.4zM688.60131 851.68092c-5 5.5-9 11.7-13.6 20.7-2.2 4.4-5.8 10.3-8.1 13-2.3 2.8-4.4 6.1-4.8 7.5-.3 1.4-1.6 4.6-2.9 7.2-3 5.9-3 7.6 0 8.7 1.9.8 2.7 2.4 4.4 9.8 2.8 11.9 5.6 40.6 6.7 68.7.4 10.2 1 15.7 2.1 17.7 1 2.1 1.8 8.7 2.4 22.2 1.1 21.5 2 27.7 5 34.3 2.4 5.6 4.4 5 3.5-1-.5-4-.5-3.9 1.4 1.4 1.2 3.3 2 8.1 2.1 11.8 0 5.9-.3 6.7-3.5 10.5-1.9 2.2-3.5 4.6-3.5 5.3 0 3.4 7.2 4.9 13.2 2.8 4.2-1.5 4.3-1.5 6.3 1.1 6 7.4 8.6 13.2 9.7 21.8 1.5 10.9.6 12.4-9.1 16.2-3.8 1.4-10.8 4.6-15.5 7-4.6 2.3-8.7 4-9 3.7-.3-.3-.6-4.3-.6-8.9 0-4.5-.3-8.3-.6-8.3-1.5 0-12.1 10-16 15.2-9 11.7-31.8 24.2-53.4 29.2-7.8 1.9-15.4 2-23.5.3-5.9-1.3-5.9-1.3-7.2-5.7-.7-2.4-1.1-5.2-.7-6.2.9-2.9-2.3-7.5-9.4-13.1-7.4-5.9-7.4-5.9-28.7-18.3-8.2-4.8-17.7-10.4-20.9-12.6-3.2-2.1-7.2-4.6-8.7-5.3-3.4-1.8-9.2-2-8.7-.3.7 1.9 18.2 14.2 33.6 23.4 19.3 11.6 25.7 16.5 28.2 21.4 3.3 6.6 2.3 7.8-3 3.7-2.5-1.9-9.3-5.8-15-8.7-5.8-2.9-16.3-9-23.3-13.7-16.3-10.7-21.7-13.4-27-13.5-8.2-.1-12.7-5.9-12.7-16.6 0-10 8.5-25.9 18.2-34.3 8.1-7 8.1-7 18.3-4.3 9 2.3 21.5 3.2 21.5 1.5 0-.5-4.2-2.3-9.2-4-5.1-1.8-10.8-4-12.6-4.8-2.8-1.4-4-1.4-9-.4-3.1.7-6.6 2.1-7.7 3.1-1.1 1-3.5 2.5-5.3 3.4-4.8 2.4-17.8 16.1-20.4 21.5-2.6 5.3-3.1 16.7-1 23.8 2.7 9 17.2 20.3 26.3 20.3 2.7 0 4.9.9 8.1 3.3 9.1 6.9 19.7 13.6 29.3 18.5 8.4 4.2 11 6.1 16.1 11.8 3.4 3.8 8 8.8 10.2 11.1 4.3 4.4 13.7 9.4 21.4 11.3 4.4 1.1 4.5 1.2 4.4 5.3-.1 4 0 4.2 2.9 4.2 3.5 0 4.5-2.4 2-4.9-1.8-1.8-1.1-4 1-3.2.8.3 5.7 0 11.1-.5 14.3-1.5 24.1-5.9 34.4-15.5 5.1-4.7 21.1-13.4 24.7-13.4 1.3 0 3.6-.6 5.1-1.3 1.5-.7 5.2-1.9 8.2-2.6 8.5-2 31.4-13.6 37.2-19 4.9-4.5 5-4.7 5.9-12.6.6-4.4 1.2-8.1 1.5-8.4.2-.2 1.4.5 2.7 1.7 3.4 3.2 4 2.7 3.3-2-.7-4.6-3.4-8.7-10.3-15.9-7.7-8-15.7-24.4-19.7-40.4-1.5-6.1-3.2-12.8-3.8-15-.6-2.2-1.6-6.7-2.3-10-1.8-8.3-5.4-20.7-6.6-22.1-1.5-1.8-5.1-16.5-5.6-22.9-.3-3.3-.9-6.5-1.3-7-.5-.6-1.1-5.3-1.5-10.5-1.2-17.3-3.5-38.3-5.5-51.4-1.1-7.1-2-13.7-2-14.8 0-3 14.5-17.3 27.4-27 8.5-6.4 15.9-10.9 26.1-15.9 7.9-3.8 14.7-6.9 15.3-6.9.5 0 1.5-.7 2.2-1.5 1.7-2 1.2-2-10.4 1.6-20.8 6.4-35.7 13.4-47.4 22.2-2.9 2.2-5.5 3.8-5.7 3.5-.6-.5 2.8-9.6 5.7-15.2 2.3-4.6 5.9-9.7 9.7-13.9 1.4-1.5 2.2-2.7 1.9-2.7-.3 0-2.1 1.7-4 3.8zM451.50131 855.28092c-1.1 7.8-.8 17.7.9 29.8 1.5 11.3 1.9 12.6 3 11.5.7-.6-1.5-37.5-2.5-42.7l-.7-3.5-.7 4.9zM863.70131 891.88092c-5.2 2.7-14.9 15.9-14.9 20.2 0 .9-1.6 3-3.5 4.7-2.9 2.6-4.4 3.1-8.4 3.1-2.7 0-6.9-.9-9.5-2.1-2.6-1.1-5.4-1.8-6.2-1.5-2.5 1-1.6 5.4 2 9.4 4.9 5.4 11.7 8.6 19.8 9 10.4.6 18.2-2.9 22.9-10.4 2.4-3.9 2.8-13.2 1-20.2-1.3-4.5-.9-6.2 1.5-6.2 1.7 0 1.9-4 .2-6.2-1.2-1.5-1.6-1.5-4.9.2zM1081.10131 892.08092c1.1 4.3.9 46.8-.3 53-.5 3.2-1.4 8.2-1.9 11.2-2.3 13.1-7.8 26.1-25.6 60-3.1 5.9-7.2 14.9-9 20-9.2 25.6-22.8 50.3-28.6 52.1-1.3.4-3.4 1.8-4.8 3.1s-3.1 2.4-3.8 2.4c-.6 0-2.8 1-4.8 2.1-2.4 1.4-6 2.3-10.5 2.7-9.5.6-17.7-1.5-32.8-8.5-3-1.3-5.6-2.2-5.9-2-.8.9 4.9 6.8 9.1 9.4 5.3 3.4 10 4.9 21.2 6.8 10 1.7 14.7 1.5 19.8-1.2 3.1-1.6 38.8-37 43-42.7 1.3-1.7 3.9-7.6 5.9-13.1 1.9-5.5 4.7-12.6 6.1-15.7 1.4-3.2 3.6-9.5 5-14 2.4-8.3 5.8-17.7 11.5-31.9 7.6-19.1 10.2-36.1 10.2-66.1 0-22.5-.5-27-2.9-29-1.3-1.1-1.4-1-.9 1.4zM254.60131 903.08092c-2.1.6-3.8 1.6-3.8 2.4 0 2.9 9.7.8 10.8-2.4.4-1.4-1.7-1.4-7 0z"/>
  <path d="M891.70131 916.38092c-.4 9.7-.9 12.8-2.6 16-7.5 14.3-28.6 22.6-49.9 19.6-10.7-1.5-17.4-4.4-24.2-10.6-8-7.2-10.3-11.9-11.7-23.9l-1.2-10.1-.8 5.8c-1.6 12.1 1.4 20.9 10.2 29.4 10.7 10.5 28.8 15.9 45.1 13.6 14.4-2.1 27.3-9 33.4-17.8 3-4.4 5.8-15 5.8-21.7 0-2.4-.9-6.1-1.9-8.3l-1.8-4-.4 12zM1038.80131 911.78092c0 1.6 7.2 7 10.1 7.6 1.5.4 5.3 2.4 8.4 4.7 3.1 2.2 5.9 3.8 6.2 3.5 1.1-1.2-10.4-11.4-15.6-14-5.6-2.8-9.1-3.4-9.1-1.8zM153.60131 949.58092c-2.6 2.6-5.4 6.5-6.3 8.5-2.3 5.6-1.9 13.4 1 19.5 1.3 2.9 2.1 5.4 1.7 5.7-1.1.7-29.8-7.1-34-9.3-6.2-3.2-6.3-3.4-3.9-15.4 1.5-7.8 1.8-11 1-11.8-1.4-1.4-4-.1-5.6 2.8-.7 1.1-2.1 3.2-3.1 4.7-3.8 5.5-3.1 16.2 1.6 22.1 4.7 6 18.3 9.7 35.2 9.4 10.9-.1 11-.1 13.4 2.7 2.2 2.5 2.3 3.4 1.8 8.5-.4 3.1-1.6 8.3-2.7 11.4-2.8 7.9-1.2 9.2 3.5 2.9 3.7-5.2 6.6-12.1 6.6-16.1 0-1.3-1.8-6.1-4-10.5-2.2-4.5-4-9.4-4-10.9s1.4-5.3 3.1-8.5c1.7-3.3 3.3-7.9 3.6-10.5.4-3.8.1-5-1.8-7.3l-2.4-2.7-4.7 4.8zM740.80131 945.68092c0 3.6 26 15.7 52 24.3 13.1 4.2 14.5 4.9 14.6 7.1.1 1.2.2 2.8.3 3.5.1 1.2 10.9 4.8 11.9 3.9.3-.3 0-1.7-.6-3.1-1.3-2.9-.4-3.7 3.8-3.3 3.4.4 3.7-2.5.5-4.6-2.6-1.7-14.9-6.3-38-14.1-7.1-2.4-19.4-6.7-27.3-9.4-14.3-5.1-17.2-5.8-17.2-4.3zM802.40131 957.68092c2 1.8 51.9 15.2 56.4 15.2 3.1 0 1.5-1.7-3.8-4.1-11.8-5.3-57-14.8-52.6-11.1zM993.00131 975.58092c.3 2.1 4.5 11.7 9.3 21.4 4.8 9.7 8.8 18.9 8.8 20.5 0 3.9-3.9 6.7-13.7 9.9-9.8 3.3-10.5 3.6-8 4.6 3.3 1.3 14 1 18.5-.6 10.4-3.7 11.4-9.3 4.6-26.5-4.8-12.2-16.7-33-18.9-33-.6 0-.9 1.5-.6 3.7zM44.20131 995.98092c1.3 9.7 10.8 32.1 18.9 44.8 6.7 10.2 17.5 21.2 24.4 24.6 5.3 2.7 6.7 3 16.3 3 8.3 0 11.2-.4 13.9-1.8 3.7-2.1 13.6-11.5 16.7-16 2-2.8 2-2.8 5-1.1 2.8 1.6 3.2 1.6 6.4 0 1.9-.9 6.7-4 10.5-6.9 8-5.9 7.2-7-3.3-4.3-9.5 2.5-13.7 1.9-9.7-1.4 1.5-1.2 2.2-5.5.8-4.8-4.8 2.1-15 7.9-19.7 11.1-10.3 6.9-24.3 13.7-28.4 13.7-10.1-.1-19.2-9.4-30.3-31-5.5-10.8-17.1-31.4-18.7-33.3-2.6-3-3.5-2-2.8 3.4z"/>
  <path d="M119.80131 992.78092c-3.6.9-9 3-12 4.6-6.3 3.5-16 12.9-16 15.6 0 2.7 1.2 2.4 6.2-1.4 7.6-5.7 16.1-11 24.8-15.5 4.7-2.4 8.7-4.6 8.9-4.8 1-.9-5.9-.1-11.9 1.5zM589.80131 1019.08092c-.1 1.8-.3 6.4-.6 10.3-.2 3.8 0 8.3.5 10 .7 2.2.9-.4 1-10.3.1-7.2-.1-13.2-.4-13.2-.3 0-.5 1.5-.5 3.2zM581.30131 1066.58092c-2.9.6-15.4 4.9-19.8 6.8-4.1 1.7-14.7 11.3-14.7 13.3 0 2.3 2.6 1.1 9.5-4.5 6.1-4.9 23.3-14.3 26.3-14.3.6 0 1.4-.5 1.7-1 .6-1 .4-1.1-3-.3zM386.30131 1142.98092c-9.7 3.1-18.5 7.8-18.5 10 0 1 .5 1.9 1.1 1.9 1.3 0 27.9-13 27.9-13.6 0-.9-4.8-.1-10.5 1.7zM390.40131 1163.88092c1.9 6.4 1.2 7.1-5 5.5-2.9-.8-2.9-.8-2.3 2.8.4 2.9.1 4.1-1.9 6.2-1.8 2-2.4 3.6-2.2 5.9.4 4.4 3 4.5 8.3.2 2.4-2 4.8-3.6 5.3-3.6s1.5 1.5 2.2 3.2c4.6 12.5 5.3 13.3 14.7 15.8 3.7 1 10.6 3 15.3 4.5 18.1 5.5 40.1 10.5 54.5 12.4 15.9 2.1 21.3 2.5 47.5 4.1 21.5 1.4 34.8 4.4 36.3 8.3.3.8 4.4 3.3 9.1 5.6 8.1 3.8 9 4 14.9 3.4 6.9-.7 12-2.8 15.6-6.7 3.1-3.3 3.6-3.3 34 .5 22.8 2.9 26.2 3.1 46.6 2.6 22.2-.5 33.2-1.8 47.8-5.6l7.9-2 5.4 3.7c3 2 5.4 3.9 5.4 4.3 0 .3-1.5 1.4-3.4 2.4-1.8 1-3.8 2.6-4.5 3.6-2.2 3.6 2.5 2.1 7-2.1 2.4-2.2 4.9-4 5.6-4 2.1 0 1.5-1.4-2.2-5-4.1-4-4.3-5.2-1.2-7.3 2.1-1.5 2.1-1.6-2.6-1.6-2.7-.1-5.7-.6-6.8-1.2-1.6-.8-2.5-.7-3.9.6-1.7 1.6-5.4 2.2-32.5 5.6-13 1.6-49.8 1.7-59.5.2-8.9-1.5-32.8-3.4-42-3.4-5.9 0-6.7.2-9 2.9-6 7.1-13.1 6.7-26.5-1.7-11.8-7.3-17.9-8.7-41-9.5-17-.6-38.8-2.8-55-5.6-15.5-2.8-17.6-3.5-21.5-7.6-4-4-9.8-6.9-16.1-7.9-9.8-1.5-14.7-3.6-22.5-9.4-13.7-10.3-13.5-10.1-13.2-12.9.2-2-.2-2.7-1.7-3-1.1-.2-3.3-1.8-4.8-3.6-2.7-2.9-2.8-3-2.1-.6zM361.80131 1178.68092c0 2.9 6 11.2 10.4 14.4 4.7 3.4 5.9 2.2 2.4-2.5-8.4-11.4-10.3-13.7-11.5-13.7-.7 0-1.3.8-1.3 1.8zM730.10131 1181.38092c-.9 2.4 15.5 28.5 17.9 28.5 1.3 0 .2-3.2-4.5-12.5-4.2-8.6-10.3-17.5-11.8-17.5-.5 0-1.2.7-1.6 1.5z"/>
  <path d="M564.20131 1194.38092c-.5 1.2-2.7 1.5-10.8 1.6-21 .1-39.7 4.5-31.4 7.4 1.3.5 12.4.9 24.8 1 21.1.2 22.7.3 26 2.3 5.2 3.2 9.2 3.6 16.9 1.7 8.6-2.1 12.3-1.4 42.1 7.5 22.2 6.6 32.1 8.7 36.3 7.6 3-.7 3.7-2.6 1-2.6-2 0-15.1-3.8-34.8-10-27.6-8.7-30.9-9.4-44.6-9.5h-12.6l-4.6-4.3c-4.9-4.4-7.4-5.2-8.3-2.7zM455.80131 1218.68092c0 .5 1.5 2.1 3.3 3.5 1.7 1.3 7.5 6.1 12.7 10.6 11.8 10.1 33.9 25.6 45.3 31.6 4.9 2.6 11.4 5.2 15.4 6 10.1 2.2 26.6 2.9 36.3 1.6 31.2-4 40.5-5.7 74-13.2 9.6-2.2 22-4.9 27.5-6 11.7-2.3 14.8-4.5 14.1-10.4-.9-7-2-7-20.3-.9-22.6 7.4-55.6 15.3-75.8 17.9-5.5.7-14.9 2.1-21 3-13.9 2.1-32.4 1.3-40-1.7-7.4-2.9-34.5-20.2-53.2-33.9-8.4-6.2-18.3-10.6-18.3-8.1zM520.80131 1292.48092c-.8.3-2.1.8-2.9 1-1.2.4-1.2.7.2 2.1 1.3 1.3 4.3 1.6 15.5 1.8 7.7.2 15.9.6 18.3 1 6 1 4.1-.8-3.6-3.6-5.9-2-24.1-3.6-27.5-2.3zM427.80131 1472.98092c0 13.9.9 18.5 5.8 29.4 4.3 9.5 4 9.1 5.1 7.9.6-.5.2-5.4-.9-12.4-1-6.3-2.5-15.6-3.3-20.6-1.4-8.9-4.1-16.4-5.8-16.4-.5 0-.9 5.4-.9 12.1zM309.30131 1481.88092c-1.7 2.7-.9 13.3 1.2 18 4.6 10.2 16.7 21.1 24.9 22.5l3.9.6-5-2.5c-12.1-6-18.6-15-22.1-30.5-1.4-6.3-2.4-9-2.9-8.1zM442.50131 1492.58092c-.4.3-.7 2.6-.7 5 0 5.9 4.3 14 13.7 25.9 1.7 2.2 5.6 7.9 8.7 12.9l5.7 9-.2 10c-.4 23 .4 68.6 1.3 76.1 1.2 9.4.4 12.1-6.6 21.4-2.3 3-5 7.3-6 9.5l-1.8 4-1.5-2.9c-1.8-3.3-1.4-6.3 2.1-20.1 4.5-17.7 5.9-27 5.4-36.8-.4-7.8-1-10.2-3.8-16-4-8.2-6.9-10.6-11.1-9-3.4 1.3-4 .7-5.8-5.5-.6-2.3-1.6-4.2-2.2-4.2-.6 0-.8.4-.4.9.3.6.9 4.5 1.4 8.8.5 4.3 1.5 12.2 2.1 17.5 1.5 11.7.2 19.8-6 38.7-3.4 10.2-4 13.5-4.9 26.9-1.2 17.1-1.4 33.7-.5 39.5.5 2.7 1.1 3.7 2.3 3.5 2.3-.5 8.3-9 10.3-14.5 2.6-7.3 5.8-20 5.8-22.7 0-1.4.5-3.7 1.1-5.3l1.1-2.8 1.1 2.3c.7 1.6.7 3-.2 4.8-.9 2.1-.9 3 .2 4.3 1 1.2 1.7 8 2.6 24.6.7 12.6 1.7 25.5 2.2 28.5.6 3 1 6.5 1.1 7.8 0 1.8.3 2 1.3 1.2.8-.6 1.4-1.9 1.4-2.8 0-.9.3-5.5.6-10.2.6-7.7-.8-35.1-2.1-44.2-.6-3.6-.6-3.7 3.7-4.8 11.7-3.2 25-13.1 26.4-19.6.3-1.8-.2-7.4-1.4-13.2-1.3-6.5-2.2-16-2.6-26.9-.8-26.7-1.4-32.2-4.2-39.2-2.3-5.8-2.5-6.9-1.4-11.3 1.4-6.4 1.3-12.4-.3-16.9-2.9-8.1-16.2-27.6-29.4-42.9-2.9-3.4-5.6-7.5-5.9-9.1-.5-2.9-1.3-3.5-2.6-2.2zM257.90131 1596.08092c0 3 1.2 14.4 2.3 22.3 1.1 7.7 1.6 22.9.8 21.7-1.3-1.9-4.4-.3-4 2.2.2 1.6 1 2.1 2.9 1.9 2.5-.1 2.5.1 3.7 9.5 1.3 10.2 1.8 11.5 3.2 9.2 2.7-4.4 2.4-41.1-.4-53.4-2.7-12-8.7-21.4-8.5-13.4zM225.40131 1661.58092c-.5 3.1-.8 16.1-.5 26 .2 3.8 1.4 2.6 2.8-2.5 1.9-7 2.6-22.4 1.2-25-1.7-3.2-2.8-2.7-3.5 1.5z"/>
</svg>